<svg width="512" height="512" viewBox="0 0 512 512" fill="none" xmlns="http://www.w3.org/2000/svg">
<g clip-path="url(#clip0)">
<path d="M387.192 319.067L381.051 323.805C361.059 339.227 338.207 350.536 313.817 357.071L313.348 357.196C308.52 358.489 304.559 353.278 307.094 348.973L307.102 348.962C318.871 328.997 324.559 306.032 323.469 282.879L321.563 242.29C320.215 213.516 337.524 187.133 364.461 176.922L364.473 176.918C392.915 172.293 421.102 186.493 434.317 212.094L452.938 248.172C463.571 268.778 479.985 285.829 500.165 297.243C504.513 299.7 503.688 306.196 498.864 307.489C498.641 307.547 498.415 307.61 498.184 307.672C474.098 314.126 448.973 315.801 424.243 312.602L415.532 311.473L387.192 319.067Z" fill="#616BC6"/>
<path d="M416.282 247.446C424.422 277.825 418.794 303.419 405.274 329.247C380.653 313.638 362.981 294.29 354.84 263.907C346.699 233.528 350.942 202.751 364.461 176.922C389.082 192.532 408.145 217.063 416.282 247.446V247.446Z" fill="#8187C1"/>
<path d="M126.812 408.673L132.949 413.407C152.941 428.833 175.797 440.138 200.184 446.673L200.656 446.802C205.481 448.095 209.445 442.88 206.906 438.575L206.898 438.563C195.133 418.598 189.445 395.634 190.531 372.485L192.438 331.895C193.789 303.118 176.477 276.739 149.543 266.524H149.527C121.086 261.899 92.8983 276.094 79.6834 301.7L61.0662 337.778C50.4334 358.38 34.0193 375.43 13.8356 386.844C9.48797 389.302 10.3122 395.798 15.1403 397.091C15.363 397.153 15.5895 397.212 15.8161 397.274C39.906 403.727 65.0271 405.403 89.7616 402.204L98.4686 401.079L126.812 408.673Z" fill="#616BC6"/>
<path d="M97.7184 337.048C89.5777 367.426 95.2067 393.02 108.726 418.852C133.347 403.243 151.023 383.891 159.16 353.512C167.301 323.13 163.062 292.352 149.543 266.524C124.918 282.133 105.859 306.669 97.7184 337.048Z" fill="#8187C1"/>
<path d="M118.245 98.1564C112.991 117.758 117.234 137.664 128.148 153C145.265 145.176 158.894 130.055 164.144 110.453C167.937 96.3009 166.781 81.9884 161.734 69.3517C158.413 61.0314 147.921 58.2188 140.882 63.7657C130.195 72.1876 122.034 84.004 118.245 98.1564Z" fill="#616BC6"/>
<path d="M505.087 288.536C486.552 278.055 471.591 262.512 461.825 243.586L443.204 207.508C429.224 180.418 400.907 164.508 371.001 166.176V164.504C371.001 130.317 343.188 102.504 309.001 102.504C292.809 102.504 278.055 108.75 267.001 118.949V61.0001C267.001 26.8126 239.188 -1 205 -1C174.883 -1 149.723 20.5899 144.16 49.1017C137.242 48.1993 130.246 49.0431 123.652 51.6173C119.313 53.3165 114.637 53.5743 110.133 52.3673L105.543 51.1368C100.211 49.7071 94.7227 52.8712 93.293 58.2071C91.8633 63.5392 95.0313 69.0236 100.363 70.4533L104.957 71.6876C108.535 72.6447 112.164 73.1212 115.785 73.1212C116.801 73.1212 117.816 73.0705 118.828 72.9962C114.234 79.8244 110.77 87.4142 108.586 95.5666C102.746 117.356 106.906 140.403 120 158.797C121.926 161.504 124.996 163 128.152 163C129.551 163 130.965 162.703 132.305 162.094C152.84 152.707 167.965 134.828 173.805 113.043C175.989 104.891 176.781 96.5861 176.219 88.3791C180.047 90.9846 184.309 92.9455 188.887 94.1721L193.481 95.4025C194.348 95.6369 195.219 95.7463 196.075 95.7463C200.492 95.7463 204.532 92.801 205.727 88.3322C207.157 82.9963 203.993 77.5158 198.657 76.0861L194.063 74.8556C189.559 73.6486 185.641 71.0861 182.731 67.4454C177.711 61.1759 171.133 56.5743 163.59 54.0196C166.926 34.1759 184.219 19 205 19C228.161 19 247 37.8399 247 61.0001V208.551C235.946 198.352 221.192 192.106 205 192.106C170.813 192.106 143 219.918 143 254.106V255.778C113.094 254.118 84.7812 270.02 70.7968 297.11L52.1757 333.188C42.41 352.11 27.449 367.657 8.91383 378.137C3.38256 381.266 0.323961 387.36 1.12474 393.665C1.92553 399.97 6.40992 405.106 12.5545 406.751L13.2263 406.931C38.7069 413.759 64.8866 415.505 91.0391 412.122L94.2578 411.704C95.9219 415.599 97.7891 419.52 99.8633 423.485C101.16 425.966 103.438 427.786 106.137 428.509C106.988 428.739 107.859 428.849 108.723 428.849C110.602 428.849 112.461 428.321 114.078 427.298C117.887 424.88 121.492 422.395 124.906 419.833L126.84 421.325C147.988 437.642 171.793 449.419 197.598 456.333L198.063 456.458C199.414 456.821 200.778 456.993 202.125 456.993C206.914 456.993 211.5 454.786 214.5 450.837C218.348 445.778 218.746 438.974 215.512 433.485C204.707 415.145 199.52 394.216 200.52 372.95L202.426 332.36C203.809 302.856 188.285 275.711 163 261.77V254.106C163 230.946 181.84 212.106 205 212.106C228.157 212.106 247 230.946 247 254.106V281.805C247 287.329 251.477 291.805 257 291.805C262.52 291.805 267.001 287.329 267.001 281.805V164.504C267.001 141.344 285.84 122.504 309.001 122.504C332.157 122.504 351.001 141.344 351.001 164.504V172.168C325.712 186.114 310.188 213.254 311.571 242.758L313.477 283.348C314.477 304.614 309.294 325.548 298.477 343.895C295.251 349.372 295.649 356.177 299.497 361.235C302.497 365.184 307.083 367.395 311.872 367.395C313.223 367.395 314.587 367.219 315.938 366.856L316.399 366.731C342.2 359.817 366.009 348.04 387.157 331.723L389.091 330.231C392.505 332.794 396.106 335.278 399.919 337.696C401.536 338.719 403.395 339.251 405.274 339.251C406.138 339.251 407.009 339.137 407.86 338.907C410.56 338.184 412.837 336.364 414.134 333.887C416.208 329.919 418.075 325.997 419.739 322.102L422.958 322.52C449.114 325.903 475.294 324.157 500.775 317.329L501.45 317.149C507.587 315.505 512.072 310.368 512.872 304.067C513.677 297.758 510.618 291.665 505.087 288.536ZM154.488 107.867C150.969 120.992 142.863 132.184 131.742 139.59C125.809 127.614 124.387 113.867 127.906 100.746C131.02 89.1174 137.649 79.047 147.07 71.6212C147.793 71.0548 148.543 70.8908 149.156 70.8908C149.539 70.8908 149.871 70.9533 150.113 71.0197C150.75 71.1876 151.899 71.6798 152.449 73.0627C156.899 84.2033 157.602 96.2385 154.488 107.867ZM27.8748 389.884C45.6132 377.821 60.0429 361.559 69.9492 342.364L88.5703 306.286C95.1016 293.633 105.863 284.286 118.481 279.426C104.113 294.868 93.625 313.68 88.0586 334.458C82.7929 354.11 82.5898 373.032 87.6015 392.391C67.5663 394.884 47.5233 394.044 27.8748 389.884ZM112.707 404.005C103.121 381.762 101.512 361.524 107.379 339.634C113.566 316.54 126.934 296.305 145.492 281.637C154.231 303.622 155.692 327.825 149.504 350.923C143.637 372.813 132.125 389.536 112.707 404.005ZM182.449 331.423L180.543 372.012C179.531 393.583 183.895 414.86 193.223 434.177C174.141 427.934 156.391 418.622 140.313 406.434C154.297 392.188 163.563 375.723 168.821 356.098C174.387 335.329 174.715 313.801 170 293.251C178.477 303.758 183.117 317.219 182.449 331.423ZM333.458 282.411L331.551 241.821C330.887 227.618 335.524 214.157 344.005 203.649C339.29 224.2 339.614 245.727 345.18 266.497C350.438 286.122 359.704 302.587 373.688 316.833C357.614 329.02 339.864 338.329 320.782 344.571C330.106 325.266 334.473 303.981 333.458 282.411ZM401.298 314.399C381.88 299.93 370.364 283.212 364.501 261.321C358.313 238.223 359.77 214.02 368.509 192.036C387.071 206.704 400.434 226.934 406.626 250.032C412.489 271.922 410.88 292.161 401.298 314.399ZM426.403 302.786C431.411 283.43 431.208 264.508 425.942 244.856C420.376 224.079 409.888 205.262 395.52 189.817C408.138 194.676 418.899 204.028 425.431 216.68L444.052 252.758C453.962 271.958 468.388 288.219 486.126 300.282C466.478 304.442 446.435 305.282 426.403 302.786Z" fill="#404040"/>
<path d="M257 351.809C251.477 351.809 247 356.286 247 361.809V501.001C247 506.524 251.477 511.001 257 511.001C262.523 511.001 267 506.524 267 501.001V361.809C267 356.286 262.523 351.809 257 351.809Z" fill="#404040"/>
<path d="M257.129 311.809C254.492 311.809 251.922 312.879 250.059 314.739C248.199 316.598 247.129 319.18 247.129 321.809C247.129 324.438 248.199 327.02 250.059 328.88C251.922 330.739 254.492 331.809 257.129 331.809C259.762 331.809 262.34 330.739 264.199 328.88C266.058 327.02 267.129 324.438 267.129 321.809C267.129 319.18 266.058 316.598 264.199 314.739C262.34 312.879 259.762 311.809 257.129 311.809Z" fill="#404040"/>
</g>
<defs>
<clipPath id="clip0">
<rect width="512" height="512" fill="white"/>
</clipPath>
</defs>
</svg>
