<svg fill="#555" height="511pt" viewBox="0 1 511 511.999" width="511pt" xmlns="http://www.w3.org/2000/svg">
    <path d="m386.691406 320.066406-6.140625 4.738282c-19.992187 15.421874-42.84375 26.730468-67.234375 33.265624l-.46875.125c-4.828125 1.292969-8.789062-3.917968-6.253906-8.222656l.007812-.011718c11.769532-19.964844 17.457032-42.929688 16.367188-66.082032l-1.90625-40.589844c-1.347656-28.773437 15.960938-55.15625 42.898438-65.367187l.011718-.003906c28.441406-4.625 56.628906 9.574219 69.84375 35.175781l18.621094 36.078125c10.632812 20.605469 27.046875 37.65625 47.226562 49.070313 4.347657 2.457031 3.523438 8.953124-1.300781 10.246093-.222656.058594-.449219.121094-.679687.183594-24.085938 6.453125-49.210938 8.128906-73.941406 4.929687l-8.710938-1.128906zm0 0"
          fill="#79b2ff"/>
    <path d="m415.78125 248.445312c8.140625 30.378907 2.511719 55.972657-11.007812 81.800782-24.621094-15.609375-42.292969-34.957032-50.433594-65.339844-8.140625-30.378906-3.898438-61.15625 9.621094-86.984375 24.621093 15.609375 43.683593 40.140625 51.820312 70.523437zm0 0"
          fill="#9bc6ff"/>
    <path d="m126.3125 409.671875 6.136719 4.734375c19.992187 15.425781 42.847656 26.730469 67.234375 33.265625l.472656.128906c4.824219 1.292969 8.789062-3.921875 6.25-8.226562l-.007812-.011719c-11.765626-19.964844-17.453126-42.929688-16.367188-66.078125l1.90625-40.589844c1.351562-28.777343-15.960938-55.15625-42.894531-65.371093h-.015625c-28.441406-4.625-56.628906 9.570312-69.84375 35.175781l-18.617188 36.078125c-10.632812 20.601562-27.046875 37.652344-47.230468 49.066406-4.347657 2.457031-3.523438 8.953125 1.304687 10.246094.222656.0625.449219.121094.675781.183594 24.089844 6.453124 49.210938 8.128906 73.945313 4.929687l8.707031-1.125zm0 0"
          fill="#79b2ff"/>
    <path d="m97.21875 338.046875c-8.140625 30.378906-2.511719 55.972656 11.007812 81.804687 24.621094-15.609374 42.296876-34.960937 50.433594-65.339843 8.140625-30.382813 3.902344-61.160157-9.617187-86.988281-24.625 15.609374-43.683594 40.144531-51.824219 70.523437zm0 0"
          fill="#9bc6ff"/>
    <path d="m117.746094 99.15625c-5.253906 19.601562-1.011719 39.507812 9.902344 54.84375 17.117187-7.824219 30.746093-22.945312 35.996093-42.546875 3.792969-14.152344 2.636719-28.464844-2.410156-41.101563-3.320313-8.320312-13.8125-11.132812-20.851563-5.585937-10.6875 8.421875-18.847656 20.238281-22.636718 34.390625zm0 0"
          fill="#79b2ff"/>
    <path d="m504.585938 289.535156c-18.535157-10.480468-33.496094-26.023437-43.261719-44.949218l-18.621094-36.078126c-13.980469-27.089843-42.296875-43-72.203125-41.332031v-1.671875c0-34.1875-27.8125-62-62-62-16.191406 0-30.945312 6.246094-42 16.445313v-57.949219c0-34.1875-27.8125-62-62-62-30.117188 0-55.277344 21.589844-60.839844 50.101562-6.917968-.902343-13.914062-.058593-20.507812 2.515626-4.339844 1.699218-9.015625 1.957031-13.519532.75l-4.589843-1.230469c-5.332031-1.429688-10.820313 1.734375-12.25 7.070312-1.429688 5.332031 1.738281 10.816407 7.070312 12.246094l4.59375 1.234375c3.578125.957031 7.207031 1.433594 10.828125 1.433594 1.015625 0 2.03125-.050782 3.042969-.125-4.59375 6.828125-8.058594 14.417968-10.242187 22.570312-5.839844 21.789063-1.679688 44.835938 11.414062 63.230469 1.925781 2.707031 4.996094 4.203125 8.152344 4.203125 1.398437 0 2.8125-.296875 4.152344-.90625 20.535156-9.386719 35.660156-27.265625 41.5-49.050781 2.183593-8.152344 2.976562-16.457031 2.414062-24.664063 3.828125 2.605469 8.089844 4.566406 12.667969 5.792969l4.59375 1.230469c.867187.234375 1.738281.34375 2.59375.34375 4.417969 0 8.457031-2.945313 9.652343-7.414063 1.429688-5.335937-1.734374-10.816406-7.070312-12.246093l-4.59375-1.230469c-4.503906-1.207031-8.421875-3.769531-11.332031-7.410157-5.019531-6.269531-11.597657-10.871093-19.140625-13.425781 3.335937-19.84375 20.628906-35.019531 41.410156-35.019531 23.160156 0 42 18.839844 42 42v147.550781c-11.054688-10.199219-25.808594-16.445312-42-16.445312-34.1875 0-62 27.8125-62 62v1.671875c-29.90625-1.660156-58.21875 14.242187-72.203125 41.332031l-18.621094 36.078125c-9.765625 18.921875-24.726562 34.46875-43.261719 44.949219-5.53125 3.128906-8.589843 9.222656-7.789062 15.527343.800781 6.304688 5.285156 11.441407 11.429688 13.085938l.671874.179688c25.480469 6.828124 51.660157 8.574218 77.8125 5.191406l3.21875-.417969c1.664063 3.894531 3.53125 7.816406 5.605469 11.78125 1.296875 2.480469 3.574219 4.300781 6.273438 5.023437.851562.230469 1.722656.339844 2.585937.339844 1.878906 0 3.738282-.527344 5.355469-1.550781 3.808594-2.417969 7.414063-4.902344 10.828125-7.464844l1.933594 1.492188c21.148437 16.316406 44.953125 28.09375 70.757812 35.007812l.464844.125c1.351562.363281 2.714844.535157 4.0625.535157 4.789062 0 9.375-2.207032 12.375-6.15625 3.847656-5.058594 4.246094-11.863282 1.011719-17.351563-10.804688-18.339844-15.992188-39.269531-14.992188-60.535156l1.90625-40.589844c1.382813-29.503906-14.140625-56.648437-39.425781-70.589844v-7.664062c0-23.160157 18.839844-42 42-42 23.15625 0 42 18.839843 42 42v27.699219c0 5.523437 4.476562 10 10 10 5.519531 0 10-4.476563 10-10v-117.300782c0-23.160156 18.839844-42 42-42 23.15625 0 42 18.839844 42 42v7.664063c-25.289062 13.945312-40.8125 41.085937-39.429688 70.589843l1.90625 40.589844c1 21.265625-4.183593 42.199219-15 60.546875-3.226562 5.476563-2.828124 12.28125 1.019532 17.339844 3 3.949219 7.585937 6.160156 12.375 6.160156 1.351562 0 2.714844-.175781 4.066406-.539062l.460938-.125c25.800781-6.914063 49.609374-18.691407 70.757812-35.007813l1.933594-1.492187c3.414062 2.5625 7.015625 5.046875 10.828125 7.464843 1.617187 1.023438 3.476562 1.554688 5.355469 1.554688.863281 0 1.734374-.113281 2.585937-.34375 2.699219-.722656 4.976563-2.542969 6.273437-5.019531 2.074219-3.96875 3.941407-7.890625 5.605469-11.785157l3.21875.417969c26.15625 3.382813 52.335938 1.636719 77.816407-5.191406l.675781-.179687c6.136719-1.644532 10.621093-6.78125 11.421875-13.082032.804687-6.308594-2.253906-12.402344-7.785156-15.53125zm-350.597657-180.667968c-3.519531 13.125-11.625 24.316406-22.746093 31.722656-5.933594-11.976563-7.355469-25.722656-3.835938-38.84375 3.113281-11.628906 9.742188-21.699219 19.164062-29.125.722657-.566406 1.472657-.730469 2.085938-.730469.382812 0 .714844.0625.957031.128906.636719.167969 1.785157.660157 2.335938 2.042969 4.449219 11.140625 5.152343 23.175781 2.039062 34.804688zm-126.613281 282.015624c17.738281-12.0625 32.167969-28.324218 42.074219-47.519531l18.621093-36.078125c6.53125-12.652344 17.292969-22 29.910157-26.859375-14.367188 15.441407-24.855469 34.253907-30.421875 55.03125-5.265625 19.652344-5.46875 38.574219-.457032 57.933594-20.035156 2.492187-40.078124 1.652344-59.726562-2.507813zm84.832031 14.121094c-9.585937-22.242187-11.195312-42.480468-5.328125-64.371094 6.1875-23.09375 19.554688-43.328124 38.113282-57.996093 8.738281 21.984375 10.199218 46.1875 4.011718 69.285156-5.867187 21.890625-17.378906 38.613281-36.796875 53.082031zm69.742188-72.582031-1.90625 40.589844c-1.011719 21.570312 3.351562 42.847656 12.679687 62.164062-19.082031-6.242187-36.832031-15.554687-52.910156-27.742187 13.984375-14.246094 23.25-30.710938 28.507812-50.335938 5.566407-20.769531 5.894532-42.296875 1.179688-62.847656 8.476562 10.507812 13.117188 23.96875 12.449219 38.171875zm151.007812-49.011719-1.90625-40.589844c-.664062-14.203124 3.972657-27.664062 12.453125-38.171874-4.714844 20.550781-4.390625 42.078124 1.175782 62.847656 5.257812 19.625 14.523437 36.089844 28.507812 50.335937-16.074219 12.1875-33.824219 21.496094-52.90625 27.738281 9.324219-19.304687 13.691406-40.589843 12.675781-62.160156zm67.839844 31.988282c-19.417969-14.46875-30.933594-31.1875-36.796875-53.078126-6.1875-23.097656-4.730469-47.300781 4.007812-69.285156 18.5625 14.667969 31.925782 34.898438 38.117188 57.996094 5.863281 21.890625 4.253906 42.128906-5.328125 64.367188zm25.105469-11.613282c5.007812-19.355468 4.804687-38.277344-.460938-57.929687-5.566406-20.777344-16.054687-39.59375-30.421875-55.039063 12.617188 4.859375 23.378907 14.210938 29.910157 26.863282l18.621093 36.078124c9.910157 19.199219 24.335938 35.460938 42.074219 47.523438-19.648438 4.160156-39.691406 5-59.722656 2.503906zm0 0"/>
    <path d="m256.5 352.808594c-5.523438 0-10 4.476562-10 10v139.191406c0 5.523438 4.476562 10 10 10s10-4.476562 10-10v-139.191406c0-5.523438-4.476562-10-10-10zm0 0"/>
    <path d="m256.628906 312.808594c-2.636718 0-5.207031 1.070312-7.070312 2.929687-1.859375 1.859375-2.929688 4.441407-2.929688 7.070313s1.070313 5.210937 2.929688 7.070312c1.863281 1.859375 4.433594 2.929688 7.070312 2.929688 2.632813 0 5.210938-1.070313 7.070313-2.929688s2.929687-4.441406 2.929687-7.070312-1.070312-5.210938-2.929687-7.070313-4.4375-2.929687-7.070313-2.929687zm0 0"/>
</svg>
