<svg id="Capa_1" enable-background="new 0 0 512.133 512.133" height="512" viewBox="0 0 512.133 512.133" width="512" xmlns="http://www.w3.org/2000/svg"><g><g><path d="m65.813 173.843s15.021-21.066 15.021-40.237c0-20.25-16.416-36.667-36.667-36.667-6.266 0-12.162 1.575-17.321 4.345-7.023 7.023-12.346 19.056-12.346 25.321 0 19.172 15.021 40.237 15.021 40.237l-5.822 9.035c-1.841 2.857-2.245 6.453-.941 9.592 4.59 11.045 21.157 13.07 28.409 3.644 3.377 4.389 15.798 4.202 22.039-2.038-.222-1.475-.742-2.912-1.57-4.198z" fill="#9ec8fc"/><path d="m55.312 184.613c-8.133 5.108-20.658 2.232-24.554-7.143-1.304-3.139-.901-6.734.941-9.592l3.194-4.956c1.561-2.422 1.602-5.518.094-7.974-4.282-6.97-12.486-22.173-12.486-36.342 0-6.266 1.575-12.162 4.345-17.321-11.515 6.183-19.346 18.336-19.346 32.32 0 19.172 15.021 40.237 15.021 40.237l-5.822 9.035c-1.841 2.857-2.245 6.453-.941 9.592 4.59 11.045 21.157 13.07 28.409 3.644 7.252 9.426 23.819 7.401 28.409-3.644.718-1.727.901-3.59.629-5.394-3.554.223-7.166-.571-10.178-2.46-2.347-1.472-5.368-1.476-7.715-.002z" fill="#7398d4"/><path d="m162.482 219.836c0-14.095-11.426-25.521-25.521-25.521-3.137 0-6.14.569-8.917 1.604-5.78 5.78-9.604 13.78-9.604 16.917 0 13.344 10.455 28.006 10.455 28.006l-4.052 6.289c-1.235 1.916-1.571 4.321-.747 6.446 1.844 4.756 6.831 6.944 11.619 6.944 3.778 0 14.466-3.137 19.328-8l-3.015-4.678c-.001-.001 10.454-14.663 10.454-28.007z" fill="#9ec8fc"/><path d="m132.089 245.564c-.819-2.122-.48-4.521.752-6.433l1.454-2.256c1.529-2.373 1.61-5.411.174-7.841-3.088-5.227-8.03-15.024-8.03-24.198 0-3.137.569-6.14 1.604-8.917-9.697 3.617-16.604 12.959-16.604 23.917 0 13.344 10.455 28.006 10.455 28.006l-4.065 6.307c-1.187 1.843-1.562 4.146-.817 6.207 1.774 4.909 6.841 7.164 11.702 7.164h16.49c4.862.001 9.931-2.254 11.704-7.164.745-2.062.37-4.365-.817-6.207l-1.05-1.629c-3.776 0-7.551 0-11.328 0-4.792.001-9.784-2.191-11.624-6.956z" fill="#7398d4"/><path d="m489.612 173.843s15.021-21.066 15.021-40.237c0-20.25-16.416-36.667-36.667-36.667-6.266 0-12.162 1.575-17.321 4.345-7.023 7.023-12.345 19.056-12.345 25.321 0 19.172 15.021 40.237 15.021 40.237l-5.822 9.035c-1.841 2.857-2.245 6.453-.941 9.592 4.59 11.045 21.157 13.07 28.409 3.644 3.377 4.389 15.798 4.202 22.039-2.038-.222-1.475-.742-2.912-1.57-4.198z" fill="#9ec8fc"/><path d="m479.11 184.613c-8.133 5.108-20.658 2.232-24.554-7.143-1.304-3.139-.901-6.734.941-9.592l3.194-4.956c1.561-2.422 1.603-5.518.094-7.974-4.282-6.97-12.486-22.173-12.486-36.342 0-6.266 1.575-12.162 4.345-17.321-11.514 6.184-19.345 18.337-19.345 32.321 0 19.172 15.021 40.237 15.021 40.237l-5.822 9.035c-1.841 2.857-2.245 6.453-.941 9.592 4.59 11.045 21.157 13.07 28.409 3.644 7.252 9.426 23.819 7.401 28.409-3.644.718-1.727.901-3.59.629-5.394-3.554.223-7.166-.571-10.178-2.46-2.347-1.473-5.369-1.477-7.716-.003z" fill="#7398d4"/><path d="m400.694 219.836c0-14.095-11.426-25.521-25.521-25.521-3.137 0-6.14.569-8.917 1.604-5.78 5.78-9.604 13.78-9.604 16.917 0 13.344 10.455 28.006 10.455 28.006l-4.052 6.289c-1.235 1.916-1.571 4.321-.747 6.446 1.844 4.756 6.831 6.944 11.619 6.944 3.778 0 14.466-3.137 19.328-8l-3.015-4.678c-.001-.001 10.454-14.663 10.454-28.007z" fill="#9ec8fc"/><path d="m370.301 245.564c-.819-2.122-.48-4.521.752-6.433l1.453-2.256c1.529-2.373 1.61-5.411.174-7.841-3.088-5.227-8.03-15.024-8.03-24.198 0-3.137.569-6.14 1.604-8.917-9.697 3.617-16.604 12.959-16.604 23.917 0 13.344 10.455 28.006 10.455 28.006l-4.065 6.307c-1.187 1.843-1.562 4.146-.817 6.207 1.773 4.909 6.841 7.164 11.702 7.164h16.49c4.862.001 9.931-2.254 11.704-7.164.745-2.062.37-4.365-.817-6.207l-1.05-1.629c-3.776 0-7.551 0-11.328 0-4.791.001-9.783-2.191-11.623-6.956z" fill="#7398d4"/></g><g><path d="m256.066 511.937c-4.143 0-7.5-3.357-7.5-7.5v-108.281c0-.032 0-.069 0-.103-.008-34.631-4.209-62.489-12.148-80.571-6.955-15.842-16.455-23.874-28.235-23.874-10.557 0-18.826 7.308-18.826 16.637 0 8.856 5.004 10.716 9.201 10.716 3.649 0 5.089-3.369 5.104-4.058 0-4.143 3.357-7.499 7.5-7.499s7.5 3.358 7.5 7.501c0 9.013-8.256 19.056-20.104 19.056-6.37 0-12.259-2.225-16.582-6.264-3.476-3.248-7.619-9.259-7.619-19.452 0-17.74 14.858-31.637 33.826-31.637 10.353 0 24.215 3.89 35.48 20.816-4.348-41.199-11.574-78.785-21.641-112.455-8.487 11.213-15.437 23.361-15.437 35.027 0 21.804 14.794 28.833 15.423 29.122 3.803 1.644 5.517 6.042 3.873 9.844s-6.092 5.535-9.896 3.894c-.996-.431-24.4-10.914-24.4-42.859 0-18.793 11.431-35.894 24.474-51.632-9.813-18.039-40.138-50.098-64.357-50.098-15.972 0-27.127 10.279-27.127 24.997 0 7.601 5.185 13.554 11.804 13.554 7.234 0 7.797-4.994 7.797-6.525 0-1.663-.949-3.364-1.437-3.771-3.371-2.407-4.138-7.08-1.731-10.451 2.406-3.369 7.104-4.144 10.477-1.735 4.601 3.284 7.691 9.697 7.691 15.958 0 10.696-7.83 21.525-22.797 21.525-15.03 0-26.804-12.542-26.804-28.554 0-23.176 17.717-39.997 42.127-39.997 18.578 0 36.777 12.78 47.652 22.183-14.145-29.561-31.077-54.038-50.587-73.073-2.965-2.893-3.023-7.641-.131-10.605 2.891-2.965 7.64-3.024 10.605-.131 30.212 29.475 54.462 70.88 72.076 123.065 11.106 32.904 19.37 69.702 24.751 110.104 3.529-26.51 8.296-51.473 14.286-74.754 1.032-4.01 5.115-6.425 9.133-5.395 4.011 1.032 6.427 5.121 5.395 9.133-7.37 28.644-12.847 59.932-16.402 93.613 11.264-16.911 25.121-20.8 35.47-20.8 18.968 0 33.826 13.896 33.826 31.637 0 10.193-4.144 16.204-7.619 19.452-4.323 4.039-10.212 6.264-16.582 6.264-11.848 0-20.104-10.043-20.104-19.056 0-4.143 3.357-7.5 7.5-7.5s7.5 3.357 7.5 7.5v-.002c.015.688 1.454 4.058 5.104 4.058 4.197 0 9.201-1.859 9.201-10.716 0-9.329-8.27-16.637-18.826-16.637-11.78 0-21.28 8.032-28.235 23.874-7.947 18.1-12.148 45.996-12.148 80.674v108.281c-.001 4.143-3.358 7.5-7.501 7.5zm127.353-236.916h-16.494c-8.543 0-15.848-4.605-18.611-11.733-1.666-4.297-1.13-9.24 1.437-13.221l1.44-2.234c-3.541-5.962-9.039-16.993-9.039-27.996 0-18.208 14.813-33.021 33.021-33.021s33.021 14.813 33.021 33.021c0 11.003-5.498 22.034-9.039 27.996l1.441 2.237c2.565 3.978 3.102 8.921 1.435 13.219-2.763 7.127-10.069 11.732-18.612 11.732zm-21.007-16.911c.709 1.318 2.733 1.911 4.513 1.911h16.494c1.779 0 3.804-.593 4.513-1.909l-3.997-6.208c-1.663-2.581-1.585-5.915.198-8.416 2.515-3.552 9.061-14.748 9.061-23.651 0-9.938-8.084-18.021-18.021-18.021s-18.021 8.084-18.021 18.021c0 8.978 6.541 20.117 9.061 23.651 1.783 2.501 1.861 5.835.198 8.416zm-217.205 16.911h-16.494c-8.543 0-15.848-4.605-18.611-11.733-1.666-4.297-1.13-9.24 1.437-13.221l1.44-2.234c-3.541-5.962-9.039-16.993-9.039-27.996 0-18.208 14.813-33.021 33.021-33.021s33.021 14.813 33.021 33.021c0 11.003-5.498 22.034-9.039 27.996l1.441 2.237c2.565 3.978 3.102 8.921 1.435 13.219-2.763 7.127-10.069 11.732-18.612 11.732zm-21.007-16.911c.709 1.318 2.733 1.911 4.513 1.911h16.494c1.779 0 3.804-.593 4.513-1.909l-3.997-6.208c-1.663-2.581-1.585-5.915.198-8.416 2.515-3.552 9.061-14.748 9.061-23.651 0-9.938-8.084-18.021-18.021-18.021s-18.021 8.084-18.021 18.021c0 8.978 6.541 20.117 9.061 23.651 1.783 2.501 1.861 5.835.198 8.416zm168.975 5.363c-2.901 0-5.664-1.693-6.889-4.526-1.634-3.781.088-8.167 3.846-9.832.738-.341 15.415-7.401 15.415-29.118 0-18.96-18.12-39.226-35.643-58.824-4.666-5.218-9.368-10.478-13.832-15.805-1.435 1.705-2.876 3.384-4.308 5.033-2.715 3.128-7.452 3.462-10.58.748-3.128-2.715-3.463-7.451-.748-10.58 2.217-2.554 4.254-4.98 6.129-7.292-9.865-13.594-16.95-27.733-16.95-42.825 0-23.776 21.317-38.592 22.225-39.21 2.549-1.74 5.904-1.74 8.453 0 .907.618 22.225 15.434 22.225 39.21 0 15.499-7.454 29.857-16.934 42.876 4.895 5.982 10.225 11.944 15.502 17.847 1.07 1.197 2.143 2.396 3.214 3.599 18.34-50.299 43.94-91.15 74.377-118.56 36.1-32.508 66.463-36.018 77.842-36.018 36.468 0 55.548 21.312 55.548 42.363 0 18.968-13.896 33.826-31.637 33.826-10.193 0-16.204-4.144-19.452-7.619-4.039-4.323-6.264-10.212-6.264-16.582 0-11.848 10.043-20.104 19.056-20.104 4.143 0 7.5 3.357 7.5 7.5s-3.357 7.5-7.5 7.5h.003c-.689.015-4.059 1.454-4.059 5.104 0 4.197 1.859 9.201 10.716 9.201 9.329 0 16.637-8.27 16.637-18.826 0-17.964-20.398-27.363-40.548-27.363-26.785 0-82.494 24.219-123.694 110.194 14.306-12.402 31.352-22.123 47.606-22.123 24.41 0 42.127 16.821 42.127 39.997 0 16.012-11.773 28.554-26.804 28.554-14.967 0-22.797-10.829-22.797-21.525 0-6.261 3.091-12.674 7.691-15.958 3.368-2.404 8.055-1.626 10.462 1.747 2.401 3.364 1.628 8.035-1.726 10.446-.49.42-1.428 2.111-1.428 3.765 0 1.531.563 6.525 7.797 6.525 6.619 0 11.804-5.953 11.804-13.554 0-14.718-11.155-24.997-27.127-24.997-23.32 0-54.04 30.977-64.362 50.104 13.536 16.386 24.479 33.393 24.479 51.625 0 31.945-23.404 42.429-24.4 42.859-.97.42-1.98.618-2.972.618zm-37.116-196.244c-4.644 4.469-11.443 12.794-11.443 23.223 0 9.92 4.593 20.04 11.417 30.176 9.79-14.481 11.485-23.116 11.485-30.176 0-10.395-6.815-18.743-11.459-23.223zm199.006 142.385c-1.121 0-2.252-.073-3.386-.223-8.753-1.153-15.874-6.403-19.049-14.044-2.231-5.369-1.648-11.55 1.562-16.531l3.191-4.954c-4.706-7.661-13.585-24.24-13.585-40.256 0-24.354 19.813-44.167 44.167-44.167 4.681 0 9.291.729 13.702 2.168 3.938 1.285 6.09 5.519 4.805 9.456-1.284 3.938-5.518 6.084-9.455 4.806-2.908-.949-5.953-1.43-9.052-1.43-16.083 0-29.167 13.084-29.167 29.167 0 16.486 13.496 35.697 13.632 35.889 1.773 2.5 1.854 5.834.193 8.41l-5.822 9.035c-.533.827-.655 1.843-.319 2.65 1.097 2.641 3.772 4.483 7.156 4.929 2.666.356 6.279-.245 8.383-2.979 1.42-1.846 3.616-2.927 5.944-2.927s4.524 1.081 5.944 2.927c2.103 2.733 5.712 3.335 8.382 2.979 3.385-.445 6.06-2.288 7.157-4.928.336-.809.214-1.824-.319-2.652l-5.822-9.034c-1.663-2.581-1.585-5.916.198-8.417.131-.185 13.627-19.396 13.627-35.882 0-3.938-.771-7.758-2.289-11.351-1.612-3.814.173-8.215 3.988-9.828 3.811-1.613 8.215.172 9.828 3.988 2.305 5.45 3.473 11.234 3.473 17.19 0 16.016-8.879 32.595-13.585 40.256l3.191 4.953c3.21 4.982 3.793 11.163 1.562 16.533-3.176 7.641-10.297 12.89-19.05 14.043-5.849.77-11.611-.484-16.285-3.367-3.767 2.325-8.243 3.591-12.9 3.591zm-397.998 0c-4.657 0-9.133-1.266-12.9-3.59-4.674 2.883-10.438 4.138-16.285 3.367-8.753-1.153-15.874-6.402-19.05-14.043-2.231-5.37-1.648-11.551 1.562-16.532l3.191-4.954c-4.706-7.661-13.585-24.24-13.585-40.256 0-24.354 19.813-44.167 44.167-44.167s44.167 19.813 44.167 44.167c0 16.016-8.879 32.595-13.585 40.256l3.191 4.953c3.21 4.982 3.793 11.163 1.562 16.533-3.175 7.64-10.296 12.89-19.049 14.043-1.134.15-2.265.223-3.386.223zm-12.9-105.175c-16.083 0-29.167 13.084-29.167 29.167 0 16.486 13.496 35.697 13.632 35.889 1.773 2.5 1.854 5.834.193 8.41l-5.822 9.035c-.533.827-.655 1.843-.319 2.65 1.098 2.641 3.772 4.483 7.157 4.929 2.671.356 6.279-.245 8.382-2.979 1.42-1.846 3.616-2.927 5.944-2.927s4.524 1.081 5.944 2.927c2.104 2.733 5.708 3.335 8.383 2.979 3.384-.445 6.06-2.288 7.156-4.928.336-.809.214-1.824-.319-2.652l-5.822-9.034c-1.663-2.581-1.585-5.916.198-8.417.131-.185 13.627-19.396 13.627-35.882 0-16.083-13.084-29.167-29.167-29.167zm7.536-28.054c-17.74 0-31.637-14.858-31.637-33.826 0-21.052 19.08-42.363 55.548-42.363 18.036 0 39.08 7.583 59.257 21.354 3.422 2.334 4.302 7.001 1.968 10.422-2.336 3.421-7.001 4.302-10.423 1.968-17.453-11.912-35.97-18.743-50.802-18.743-20.149 0-40.548 9.399-40.548 27.363 0 10.557 7.308 18.826 16.637 18.826 8.856 0 10.716-5.004 10.716-9.201 0-3.649-3.369-5.089-4.059-5.104-4.142 0-7.498-3.357-7.498-7.5s3.358-7.5 7.501-7.5c9.013 0 19.056 8.256 19.056 20.104 0 6.37-2.225 12.259-6.264 16.582-3.248 3.475-9.259 7.618-19.452 7.618z"/></g></g></svg>