<svg id="Capa_1" enable-background="new 0 0 511.741 511.741" height="512" viewBox="0 0 511.741 511.741" width="512" xmlns="http://www.w3.org/2000/svg"><g><path d="m65.618 173.647s15.021-21.066 15.021-40.237c0-20.25-16.416-36.667-36.667-36.667-6.266 0-12.162 1.575-17.321 4.345-7.023 7.023-12.345 19.056-12.345 25.321 0 19.172 15.021 40.237 15.021 40.237l-5.822 9.035c-1.841 2.857-2.245 6.453-.941 9.592 4.59 11.045 21.157 13.07 28.409 3.644 3.377 4.389 15.798 4.202 22.039-2.038-.222-1.475-.742-2.912-1.57-4.198z" fill="#9ec8fc"/><path d="m55.116 184.417c-8.133 5.108-20.658 2.232-24.554-7.143-1.304-3.139-.901-6.734.941-9.592l3.194-4.956c1.561-2.422 1.602-5.518.094-7.974-4.282-6.97-12.486-22.173-12.486-36.342 0-6.266 1.575-12.162 4.345-17.321-11.514 6.184-19.345 18.337-19.345 32.321 0 19.172 15.021 40.237 15.021 40.237l-5.822 9.035c-1.841 2.857-2.245 6.453-.941 9.592 4.59 11.045 21.157 13.07 28.409 3.644 7.252 9.426 23.819 7.401 28.409-3.644.718-1.727.901-3.59.629-5.394-3.554.223-7.166-.571-10.178-2.46-2.347-1.473-5.369-1.477-7.716-.003z" fill="#7398d4"/><path d="m162.286 219.64c0-14.095-11.426-25.521-25.521-25.521-3.137 0-6.14.569-8.917 1.604-5.78 5.78-9.604 13.78-9.604 16.917 0 13.344 10.455 28.006 10.455 28.006l-4.052 6.289c-1.235 1.916-1.571 4.321-.747 6.446 1.844 4.756 6.831 6.944 11.619 6.944 3.778 0 14.466-3.137 19.328-8l-3.015-4.678c-.001 0 10.454-14.663 10.454-28.007z" fill="#9ec8fc"/><path d="m131.894 245.368c-.819-2.122-.48-4.521.752-6.433l1.454-2.256c1.529-2.373 1.61-5.411.174-7.841-3.088-5.227-8.03-15.024-8.03-24.198 0-3.137.569-6.14 1.604-8.917-9.697 3.617-16.604 12.959-16.604 23.917 0 13.344 10.455 28.006 10.455 28.006l-4.065 6.307c-1.187 1.843-1.562 4.146-.817 6.207 1.774 4.909 6.841 7.164 11.702 7.164h16.49c4.862.001 9.931-2.254 11.704-7.164.745-2.062.37-4.365-.817-6.207l-1.05-1.629c-3.776 0-7.551 0-11.328 0-4.792.001-9.785-2.191-11.624-6.956z" fill="#7398d4"/><path d="m489.416 173.647s15.021-21.066 15.021-40.237c0-20.25-16.416-36.667-36.667-36.667-6.266 0-12.162 1.575-17.321 4.345-7.023 7.023-12.345 19.056-12.345 25.321 0 19.172 15.021 40.237 15.021 40.237l-5.822 9.035c-1.841 2.857-2.245 6.453-.941 9.592 4.59 11.045 21.157 13.07 28.409 3.644 3.377 4.389 15.798 4.202 22.039-2.038-.222-1.475-.742-2.912-1.57-4.198z" fill="#9ec8fc"/><path d="m478.915 184.417c-8.133 5.108-20.658 2.232-24.554-7.143-1.304-3.139-.901-6.734.941-9.592l3.194-4.956c1.561-2.422 1.603-5.518.094-7.974-4.282-6.97-12.486-22.173-12.486-36.342 0-6.266 1.575-12.162 4.345-17.321-11.514 6.184-19.345 18.337-19.345 32.321 0 19.172 15.021 40.237 15.021 40.237l-5.822 9.035c-1.841 2.857-2.245 6.453-.941 9.592 4.59 11.045 21.157 13.07 28.409 3.644 7.252 9.426 23.819 7.401 28.409-3.644.718-1.727.901-3.59.629-5.394-3.554.223-7.166-.571-10.178-2.46-2.348-1.473-5.369-1.477-7.716-.003z" fill="#7398d4"/><path d="m400.498 219.64c0-14.095-11.426-25.521-25.521-25.521-3.137 0-6.14.569-8.917 1.604-5.78 5.78-9.604 13.78-9.604 16.917 0 13.344 10.455 28.006 10.455 28.006l-4.052 6.289c-1.235 1.916-1.571 4.321-.747 6.446 1.844 4.756 6.831 6.944 11.619 6.944 3.778 0 14.466-3.137 19.328-8l-3.015-4.678c-.001 0 10.454-14.663 10.454-28.007z" fill="#9ec8fc"/><path d="m370.106 245.368c-.819-2.122-.48-4.521.752-6.433l1.453-2.256c1.529-2.373 1.61-5.411.174-7.841-3.088-5.227-8.03-15.024-8.03-24.198 0-3.137.569-6.14 1.604-8.917-9.697 3.617-16.604 12.959-16.604 23.917 0 13.344 10.455 28.006 10.455 28.006l-4.065 6.307c-1.187 1.843-1.562 4.146-.817 6.207 1.773 4.909 6.841 7.164 11.702 7.164h16.49c4.862.001 9.931-2.254 11.704-7.164.745-2.062.37-4.365-.817-6.207l-1.05-1.629c-3.776 0-7.551 0-11.328 0-4.792.001-9.784-2.191-11.623-6.956z" fill="#7398d4"/><path d="m244.724 157.964c0-8.255-1.994-12.217-5.828-16.051-2.652 3.034-5.355 6.058-8.045 9.066-9.085 10.16-18.314 20.483-25.56 31.123 0 12.018 2.392 16.344 5.778 19.729 6.513-13.504 18.88-27.337 30.964-40.854.896-1.003 1.794-2.008 2.691-3.013z" fill="#abd641"/><path d="m290.184 138.868c-6.303 15.368-11.92 31.783-16.829 49.18 0 7.675 7.672 15.665 11.322 15.665 2.686-10.448 5.607-20.564 8.788-30.294 1.632-4.623 5.637-11.17 11.148-18.149 0-6.559-6.293-16.402-14.429-16.402z" fill="#abd641"/><path d="m247.587 105.308c-4.942 0-9.748 6.087-9.748 14.428 6.95 12.754 17.359 24.945 27.979 36.882 4.568 0 9.53-5.114 9.53-11.862-11.556-13.062-22.542-26.345-27.761-39.448z" fill="#abd641"/><g fill="#c9eb74"><path d="m280.89 150.979c-1.848-2.067-3.702-4.142-5.542-6.222-3.046 4.047-6.255 7.998-9.53 11.862 1.296 1.456 2.594 2.909 3.89 4.359 17.522 19.599 35.643 39.864 35.643 58.824 0 21.804-14.794 28.833-15.352 29.09-3.802 1.644-5.553 6.059-3.909 9.86 1.225 2.833 3.987 4.526 6.889 4.526.992 0 2.002-.198 2.972-.617.996-.431 24.4-10.914 24.4-42.859 0-24.69-20.06-47.126-39.461-68.823z"/><path d="m303.754 276.412c-13.261 0-26.234 9.926-36.144 27.451 3.363-34.607 8.719-66.755 16.037-96.158.334-1.343.688-2.66 1.03-3.992-2.996-5.029-6.953-10.327-11.322-15.665-1.484 5.259-2.911 10.597-4.265 16.034-5.503 22.113-9.901 45.742-13.221 70.724-3.319-24.982-7.717-48.611-13.221-70.724-11.855-47.632-28.743-88.489-50.195-121.439-18.077-27.766-38.84-49.261-61.71-63.888-18.909-12.094-38.557-18.755-55.325-18.755-36.467 0-55.547 21.312-55.547 42.363 0 18.968 13.896 33.826 31.637 33.826 10.193 0 16.204-4.144 19.452-7.619 4.039-4.323 6.264-10.212 6.264-16.582 0-11.848-10.043-20.104-19.056-20.104-4.143 0-7.5 3.357-7.5 7.5s3.357 7.5 7.5 7.5h-.003c.689.015 4.059 1.454 4.059 5.104 0 4.197-1.859 9.201-10.716 9.201-9.329 0-16.637-8.27-16.637-18.826 0-17.964 20.398-27.363 40.547-27.363 25.416 0 68.026 19.859 104.465 75.827 6.899 10.597 13.31 22.067 19.216 34.376-10.881-9.397-29.049-22.132-47.593-22.132-24.41 0-42.127 16.821-42.127 39.997 0 16.012 11.773 28.554 26.804 28.554 14.967 0 22.797-10.829 22.797-21.525 0-6.261-3.091-12.674-7.691-15.958-3.368-2.404-8.055-1.626-10.462 1.747-2.406 3.371-1.624 8.055 1.747 10.462.457.385 1.406 2.086 1.406 3.749 0 1.531-.563 6.525-7.797 6.525-6.619 0-11.804-5.953-11.804-13.554 0-14.718 11.155-24.997 27.127-24.997 26.81 0 61.099 39.281 66.77 55.348 3.586 10.971 6.86 22.405 9.817 34.286 7.318 29.403 12.674 61.551 16.037 96.158-9.909-17.525-22.883-27.451-36.144-27.451-18.968 0-33.826 13.896-33.826 31.637 0 10.193 4.144 16.204 7.619 19.452 4.323 4.039 10.212 6.264 16.582 6.264 11.848 0 20.104-10.043 20.104-19.056 0-4.143-3.357-7.5-7.5-7.5s-7.5 3.357-7.5 7.5v-.002c-.015.688-1.454 4.058-5.104 4.058-4.197 0-9.201-1.859-9.201-10.716 0-9.329 8.27-16.637 18.826-16.637 16.931 0 40.384 36.332 40.384 104.548v108.281c0 4.143 3.357 7.5 7.5 7.5s7.5-3.357 7.5-7.5v-108.281c0-68.216 23.453-104.548 40.384-104.548 10.557 0 18.826 7.308 18.826 16.637 0 8.856-5.004 10.716-9.201 10.716-3.649 0-5.089-3.369-5.104-4.058v.002c0-4.143-3.357-7.5-7.5-7.5s-7.5 3.357-7.5 7.5c0 9.013 8.256 19.056 20.104 19.056 6.37 0 12.259-2.225 16.582-6.264 3.476-3.248 7.619-9.259 7.619-19.452.001-17.74-14.858-31.637-33.826-31.637z"/><path d="m436.323 0c-16.768 0-36.416 6.661-55.326 18.756-22.87 14.627-43.633 36.122-61.71 63.888-10.902 16.746-20.619 35.543-29.102 56.225.63.706 1.259 1.41 1.884 2.109 4.142 4.633 8.396 9.394 12.545 14.293 13.641-17.273 36.527-37.199 55.621-37.199 15.972 0 27.127 10.279 27.127 24.997 0 7.601-5.185 13.554-11.804 13.554-7.234 0-7.797-4.994-7.797-6.525 0-1.663.949-3.364 1.406-3.749 3.371-2.407 4.153-7.091 1.747-10.462-2.407-3.373-7.094-4.151-10.462-1.747-4.601 3.284-7.691 9.697-7.691 15.958 0 10.696 7.83 21.525 22.797 21.525 15.03 0 26.804-12.542 26.804-28.554 0-23.176-17.717-39.997-42.127-39.997-18.544 0-36.712 12.734-47.593 22.132 5.906-12.309 12.316-23.779 19.216-34.376 36.438-55.969 79.049-75.828 104.465-75.828 20.149 0 40.548 9.399 40.548 27.363 0 10.557-7.308 18.826-16.637 18.826-8.856 0-10.716-5.004-10.716-9.201 0-3.649 3.369-5.089 4.059-5.104h-.003c4.143 0 7.5-3.357 7.5-7.5s-3.357-7.5-7.5-7.5c-9.013 0-19.056 8.256-19.056 20.104 0 6.37 2.225 12.259 6.264 16.582 3.248 3.476 9.259 7.619 19.452 7.619 17.74 0 31.637-14.858 31.637-33.826 0-21.051-19.08-42.363-55.548-42.363z"/><path d="m260.097 51.046c-1.295-.885-2.769-1.306-4.227-1.304-1.458-.001-2.931.42-4.227 1.304-.907.618-22.225 15.434-22.225 39.21 0 10.222 3.257 20.006 8.42 29.48 3.83-4.918 7.214-9.78 9.748-14.428-2.012-5.052-3.168-10.077-3.168-15.052 0-10.431 6.801-18.753 11.451-23.226 4.65 4.473 11.451 12.795 11.451 23.226 0 16.942-13.396 34.465-28.426 51.657 2.017 5.244 3.961 10.593 5.828 16.051 18.928-21.22 37.598-43.208 37.598-67.708.002-23.777-21.316-38.592-22.223-39.21z"/><path d="m191.39 219.801c0 31.945 23.404 42.429 24.4 42.859.97.419 1.979.617 2.972.617 2.901 0 5.664-1.693 6.889-4.526 1.644-3.802-.107-8.217-3.909-9.86-.558-.257-15.352-7.286-15.352-29.09 0-5.884 1.748-11.894 4.678-17.97-1.816-6.739-3.752-13.325-5.778-19.729-8.228 12.081-13.9 24.571-13.9 37.699z"/></g></g></svg>